# xmcd CD database file
#
# Track frame offsets:
#	150
#	17312
#	33970
#	47700
#	63100
#	80272
#	97060
#	115745
#	136722
#	153037
#	169585
#	191987
#	213057
#	241235
#	266720
#	283485
#	298537
#	318045
#
# Disc length: 4550 seconds
#
# Revision: 8
# Processed by: cddbd v1.5.2PL0 Copyright (c) Steve Scherf et al.
# Submitted via: CDex 1.51
#
DISCID=eb11c412
DTITLE=Prince - The Hits - The B-Sides (Disc-1: The Hits 1)
DYEAR=1993
DGENRE=Rock
TTITLE0=When Doves Cry
TTITLE1=Pop Life
TTITLE2=Soft And Wet
TTITLE3=I Feel For You
TTITLE4=Why You Wanna Treat Me So Bad
TTITLE5=When You Were Mine
TTITLE6=Uptown
TTITLE7=Let's Go Crazy
TTITLE8=1999
TTITLE9=I Could Never Take The Place Of Your Man
TTITLE10=Nothing Compares 2 U (Live)
TTITLE11=Adore
TTITLE12=Pink Cashmere
TTITLE13=Alphabet St.
TTITLE14=Sign 'O' The Times
TTITLE15=Thieves In The Temple
TTITLE16=Diamonds And Pearls
TTITLE17=7
EXTD=YEAR: 1993
EXTT0=
EXTT1=
EXTT2=
EXTT3=
EXTT4=
EXTT5=
EXTT6=
EXTT7=
EXTT8=
EXTT9=
EXTT10=
EXTT11=
EXTT12=
EXTT13=
EXTT14=
EXTT15=
EXTT16=
EXTT17=
PLAYORDER=
